<?xml version = "1.0" standalone = "no"?>
<svg xmlns="http://www.w3.org/2000/svg" xmlns:xlink="http://www.w3.org/1999/xlink" font-family="Arial" viewBox="699.5 -0.5 551 251" width="551" height="251"><path transform="matrix(1 0 0 1 700 0)" d="M 0 40 L 40 40 L 40 0 L 60 0 L 60 40 L 100 40 L 100 60 L 60 60 L 60 100 L 40 100 L 40 60 L 0 60 Z" fill="#ffffff" stroke="#000000" stroke-linecap="butt" stroke-linejoin="round"/><path transform="matrix(1 0 0 1 850 0)" d="M 0 14.142135623730951 L 14.14213562373095 0 L 50 35.857864376269035 L 85.85786437626905 0 L 100 14.142135623730951 L 64.14213562373094 50 L 100 85.85786437626905 L 85.85786437626905 100 L 50 64.14213562373097 L 14.14213562373095 100 L 0 85.85786437626905 L 35.85786437626906 50 Z" fill="#ffffff" stroke="#000000" stroke-linecap="butt" stroke-linejoin="round"/><path d="M 100 50 A 50 50 0 0 1 0 50 A 50 50 0 0 1 100 50 z M 80 50 A 30 30 0 0 0 20 50 A 30 30 0 0 0 80 50 z" transform="matrix(1 0 0 1 1000 0)" fill="#ffffff" stroke="#000000" stroke-linecap="butt" stroke-linejoin="round"/><path d="M 100 50 A 50 50 0 1 1 50 0 L 50 25 A 25 25 0 1 0 75 50 z" transform="matrix(1 0 0 1 1150 0)" fill="#ffffff" stroke="#000000" stroke-linecap="butt" stroke-linejoin="round"/><path d="M 75 6.698729810778062 A 50 50 0 0 0 50 50 A 50 50 0 0 0 75 93.30127018922194 A 50 50 0 0 1 0 50 A 50 50 0 0 1 75 6.698729810778062 z" transform="matrix(1 0 0 1 700 150)" fill="#ffffff" stroke="#000000" stroke-linecap="butt" stroke-linejoin="round"/><path transform="matrix(1 0 0 1 850 180)" d="M 0 10 C 46.730792954889466 44.64101615137754 53.269207045110534 -24.641016151377542 100 10 L 100 30 C 53.269207045110534 -4.641016151377542 46.730792954889466 64.64101615137754 0 30 Z" fill="#ffffff" stroke="#000000" stroke-linecap="butt" stroke-linejoin="round"/><def data-folly-template="{&quot;shapes&quot;:[{&quot;id&quot;:&quot;nGXuBJ4dtQrLI&quot;,&quot;findex&quot;:&quot;aF9VQ&quot;,&quot;type&quot;:&quot;cross&quot;,&quot;p&quot;:{&quot;x&quot;:700,&quot;y&quot;:0},&quot;rotation&quot;:0,&quot;fill&quot;:{&quot;color&quot;:{&quot;r&quot;:255,&quot;g&quot;:255,&quot;b&quot;:255,&quot;a&quot;:1}},&quot;stroke&quot;:{&quot;color&quot;:{&quot;r&quot;:0,&quot;g&quot;:0,&quot;b&quot;:0,&quot;a&quot;:1}},&quot;width&quot;:100,&quot;height&quot;:100,&quot;crossSize&quot;:20},{&quot;id&quot;:&quot;n7fbZ3dLfivZe&quot;,&quot;findex&quot;:&quot;aG92W&quot;,&quot;type&quot;:&quot;diagonal_cross&quot;,&quot;p&quot;:{&quot;x&quot;:850,&quot;y&quot;:0},&quot;rotation&quot;:0,&quot;fill&quot;:{&quot;color&quot;:{&quot;r&quot;:255,&quot;g&quot;:255,&quot;b&quot;:255,&quot;a&quot;:1}},&quot;stroke&quot;:{&quot;color&quot;:{&quot;r&quot;:0,&quot;g&quot;:0,&quot;b&quot;:0,&quot;a&quot;:1}},&quot;width&quot;:100,&quot;height&quot;:100,&quot;crossSize&quot;:20},{&quot;id&quot;:&quot;n4PxLcxYPjQsH&quot;,&quot;findex&quot;:&quot;aH5aT&quot;,&quot;type&quot;:&quot;donut&quot;,&quot;p&quot;:{&quot;x&quot;:1000,&quot;y&quot;:0},&quot;rotation&quot;:0,&quot;fill&quot;:{&quot;color&quot;:{&quot;r&quot;:255,&quot;g&quot;:255,&quot;b&quot;:255,&quot;a&quot;:1}},&quot;stroke&quot;:{&quot;color&quot;:{&quot;r&quot;:0,&quot;g&quot;:0,&quot;b&quot;:0,&quot;a&quot;:1}},&quot;rx&quot;:50,&quot;ry&quot;:50,&quot;holeRate&quot;:0.6},{&quot;id&quot;:&quot;ncGjupj6uFQ2Q&quot;,&quot;findex&quot;:&quot;aI0WH&quot;,&quot;type&quot;:&quot;arc&quot;,&quot;p&quot;:{&quot;x&quot;:1150,&quot;y&quot;:0},&quot;rotation&quot;:0,&quot;fill&quot;:{&quot;color&quot;:{&quot;r&quot;:255,&quot;g&quot;:255,&quot;b&quot;:255,&quot;a&quot;:1}},&quot;stroke&quot;:{&quot;color&quot;:{&quot;r&quot;:0,&quot;g&quot;:0,&quot;b&quot;:0,&quot;a&quot;:1}},&quot;rx&quot;:50,&quot;ry&quot;:50,&quot;from&quot;:0,&quot;to&quot;:-1.5707963267948966,&quot;holeRate&quot;:0.5},{&quot;id&quot;:&quot;nJcw8HUkiefkN&quot;,&quot;findex&quot;:&quot;aJ3dE&quot;,&quot;type&quot;:&quot;moon&quot;,&quot;p&quot;:{&quot;x&quot;:700,&quot;y&quot;:150},&quot;rotation&quot;:0,&quot;fill&quot;:{&quot;color&quot;:{&quot;r&quot;:255,&quot;g&quot;:255,&quot;b&quot;:255,&quot;a&quot;:1}},&quot;stroke&quot;:{&quot;color&quot;:{&quot;r&quot;:0,&quot;g&quot;:0,&quot;b&quot;:0,&quot;a&quot;:1}},&quot;rx&quot;:50,&quot;ry&quot;:50,&quot;innsetC&quot;:{&quot;x&quot;:0.5,&quot;y&quot;:0.5},&quot;radiusRate&quot;:1},{&quot;id&quot;:&quot;nOUmJrDppchL3&quot;,&quot;findex&quot;:&quot;aK8Gs&quot;,&quot;type&quot;:&quot;wave&quot;,&quot;p&quot;:{&quot;x&quot;:850,&quot;y&quot;:180},&quot;rotation&quot;:0,&quot;fill&quot;:{&quot;color&quot;:{&quot;r&quot;:255,&quot;g&quot;:255,&quot;b&quot;:255,&quot;a&quot;:1}},&quot;stroke&quot;:{&quot;color&quot;:{&quot;r&quot;:0,&quot;g&quot;:0,&quot;b&quot;:0,&quot;a&quot;:1}},&quot;width&quot;:100,&quot;height&quot;:40,&quot;waveSize&quot;:100,&quot;waveDepth&quot;:20}],&quot;docs&quot;:[]}"/></svg>