<?xml version = "1.0" standalone = "no"?>
<svg xmlns="http://www.w3.org/2000/svg" xmlns:xlink="http://www.w3.org/1999/xlink" font-family="Arial" viewBox="-0.5 49.5 351 51" width="351" height="51"><g><path transform="matrix(1 0 0 1 0 50)" d="M 75 0 C 88.807 0 100 11.193 100 25 L 100 25 C 100 38.807 88.807 50 75 50 L 0 50 C 0 50 0 38.807 0 25 L 0 25 C 0 11.193 0 0 0 0 Z" fill="#ffffff" stroke="#000000" stroke-linecap="butt" stroke-linejoin="round"/><g alignment-baseline="alphabetic" transform="matrix(1 0 0 1 2 52)"><g/><text stroke="none" fill="#000" font-size="14"><tspan y="27.200000000000003"><tspan x="30.103515625">Delay
</tspan></tspan></text><g stroke="#000"/></g></g><g><path transform="matrix(1 0 0 1 125 50)" d="M 92 0 C 97.65971682205331 0 101.52977958559714 5.716210264545138 99.42781352708207 10.971125410832832 L 85.82781352708207 44.971125410832826 C 84.61290671285512 48.008392446400215 81.67123670996143 50 78.39999999999999 50 L 8 50 C 2.340283177946688 50 -1.5297795855971401 44.28378973545486 0.5721864729179345 39.02887458916717 L 14.172186472917925 5.028874589167174 C 15.387093287144875 1.9916075535997848 18.328763290038562 0 21.600000000000005 0 Z" fill="#ffffff" stroke="#000000" stroke-linecap="butt" stroke-linejoin="round"/><g alignment-baseline="alphabetic" transform="matrix(1 0 0 1 147 52)"><g/><text stroke="none" fill="#000" font-size="14"><tspan y="27.200000000000003"><tspan x="13.2138671875" font-size="14">Data
</tspan></tspan></text><g stroke="#000"/></g></g><g><path transform="matrix(1 0 0 1 250 50.00000000000001)" d="M 50 0 L 100 49.999999999999986 L 0 49.999999999999986 Z" fill="#ffffff" stroke="#000000" stroke-linecap="butt" stroke-linejoin="round"/><g alignment-baseline="alphabetic" transform="matrix(1 0 0 1 277 77)"><g/><text stroke="none" fill="#000" font-size="14"><tspan y="14.700000000000001"><tspan x="3.15869140625">Merge
</tspan></tspan></text><g stroke="#000"/></g></g><def data-folly-template="{&quot;shapes&quot;:[{&quot;id&quot;:&quot;nWuNJdbHhsf6S&quot;,&quot;findex&quot;:&quot;aH&quot;,&quot;type&quot;:&quot;capsule&quot;,&quot;p&quot;:{&quot;x&quot;:0,&quot;y&quot;:50},&quot;rotation&quot;:0,&quot;fill&quot;:{&quot;color&quot;:{&quot;r&quot;:255,&quot;g&quot;:255,&quot;b&quot;:255,&quot;a&quot;:1}},&quot;stroke&quot;:{&quot;color&quot;:{&quot;r&quot;:0,&quot;g&quot;:0,&quot;b&quot;:0,&quot;a&quot;:1}},&quot;width&quot;:100,&quot;height&quot;:50,&quot;textPadding&quot;:{&quot;value&quot;:[2,2,2,2],&quot;boundsType&quot;:&quot;outer&quot;},&quot;c0&quot;:{&quot;x&quot;:0,&quot;y&quot;:0.5},&quot;c1&quot;:{&quot;x&quot;:0.75,&quot;y&quot;:0.5}},{&quot;id&quot;:&quot;nV-9MAR-64q8l&quot;,&quot;findex&quot;:&quot;aT&quot;,&quot;type&quot;:&quot;parallelogram&quot;,&quot;p&quot;:{&quot;x&quot;:125,&quot;y&quot;:50},&quot;rotation&quot;:0,&quot;fill&quot;:{&quot;color&quot;:{&quot;r&quot;:255,&quot;g&quot;:255,&quot;b&quot;:255,&quot;a&quot;:1}},&quot;stroke&quot;:{&quot;color&quot;:{&quot;r&quot;:0,&quot;g&quot;:0,&quot;b&quot;:0,&quot;a&quot;:1}},&quot;width&quot;:100,&quot;height&quot;:50,&quot;textPadding&quot;:{&quot;value&quot;:[2,2,2,2]},&quot;c0&quot;:{&quot;x&quot;:0.7,&quot;y&quot;:0},&quot;cr&quot;:8},{&quot;id&quot;:&quot;n-bDTtitjfjMb&quot;,&quot;findex&quot;:&quot;aU&quot;,&quot;type&quot;:&quot;triangle&quot;,&quot;p&quot;:{&quot;x&quot;:250,&quot;y&quot;:50.00000000000001},&quot;rotation&quot;:0,&quot;fill&quot;:{&quot;color&quot;:{&quot;r&quot;:255,&quot;g&quot;:255,&quot;b&quot;:255,&quot;a&quot;:1}},&quot;stroke&quot;:{&quot;color&quot;:{&quot;r&quot;:0,&quot;g&quot;:0,&quot;b&quot;:0,&quot;a&quot;:1}},&quot;width&quot;:100,&quot;height&quot;:49.999999999999986,&quot;textPadding&quot;:{&quot;value&quot;:[2,2,2,2]},&quot;c0&quot;:{&quot;x&quot;:0.5,&quot;y&quot;:0}}],&quot;docs&quot;:[[&quot;nWuNJdbHhsf6S&quot;,[{&quot;insert&quot;:&quot;Delay\n&quot;,&quot;attributes&quot;:{&quot;direction&quot;:&quot;middle&quot;,&quot;align&quot;:&quot;center&quot;}}]],[&quot;nV-9MAR-64q8l&quot;,[{&quot;insert&quot;:&quot;Data\n&quot;,&quot;attributes&quot;:{&quot;size&quot;:14,&quot;direction&quot;:&quot;middle&quot;,&quot;align&quot;:&quot;center&quot;}}]],[&quot;n-bDTtitjfjMb&quot;,[{&quot;insert&quot;:&quot;Merge\n&quot;,&quot;attributes&quot;:{&quot;direction&quot;:&quot;middle&quot;,&quot;align&quot;:&quot;center&quot;}}]]]}"/></svg>