<?xml version = "1.0" standalone = "no"?>
<svg xmlns="http://www.w3.org/2000/svg" xmlns:xlink="http://www.w3.org/1999/xlink" font-family="Arial" viewBox="-800 -1000 425 350" width="425" height="350"><g><rect width="200" height="150" transform="matrix(1 0 0 1 -800 -1000)" fill="#66ffff" stroke="#000000" stroke-linecap="butt" stroke-linejoin="round"/><path transform="matrix(1 0 0 1 -800 -1000)" d="M 0 16.311528866795932 L 11.572986910373789 0 L 99.99999999999989 62.73873365070491 L 188.42701308962597 0 L 199.99999999999977 16.311528866795932 L 117.28162327918321 75 L 199.99999999999977 133.68847113320408 L 188.42701308962597 150 L 99.99999999999989 87.26126634929508 L 11.572986910373789 150 L 0 133.68847113320408 L 82.71837672081656 75 Z" fill="#ff6666" stroke="#000000" stroke-linecap="butt" stroke-linejoin="round"/><ellipse cx="50" cy="50" rx="50" ry="50" transform="matrix(1 0 0 1 -775 -975)" fill="#ffff66" stroke="#000000" stroke-linecap="butt" stroke-linejoin="round"/><ellipse cx="50" cy="50" rx="50" ry="50" transform="matrix(1 0 0 1 -725 -975)" fill="#66ff66" stroke="#000000" stroke-linecap="butt" stroke-linejoin="round"/></g><g clip-path="url(#clip-nuFabyZtwmVGB-nTLClsGTmICRV)"><rect width="200" height="150" transform="matrix(1 0 0 1 -800 -800)" fill="#66ffff" stroke="#000000" stroke-linecap="butt" stroke-linejoin="round"/><path transform="matrix(1 0 0 1 -800 -800)" d="M 0 16.311528866795932 L 11.572986910373789 0 L 99.99999999999989 62.73873365070491 L 188.42701308962597 0 L 199.99999999999977 16.311528866795932 L 117.28162327918321 75 L 199.99999999999977 133.68847113320408 L 188.42701308962597 150 L 99.99999999999989 87.26126634929508 L 11.572986910373789 150 L 0 133.68847113320408 L 82.71837672081656 75 Z" fill="#ff6666" stroke="#000000" stroke-linecap="butt" stroke-linejoin="round"/><g><path d="M -775 -725 A 50 50 0 0 1 -675 -725 A 50 50 0 0 1 -775 -725 Z" fill="none" stroke="#000000" stroke-linecap="butt" stroke-linejoin="round"/><path d="M -725 -725 A 50 50 0 0 1 -625 -725 A 50 50 0 0 1 -725 -725 Z" fill="none" stroke="#000000" stroke-linecap="butt" stroke-linejoin="round"/></g></g><clipPath id="clip-nuFabyZtwmVGB-nqh53HqXgRJiX"><path d="M -775 -725 A 50 50 0 0 1 -675 -725 A 50 50 0 0 1 -775 -725 Z M -900 -550 L -500 -550 L -500 -900 L -900 -900 Z"/></clipPath><clipPath id="clip-nuFabyZtwmVGB-nTLClsGTmICRV" clip-path="url(#clip-nuFabyZtwmVGB-nqh53HqXgRJiX)"><path d="M -725 -725 A 50 50 0 0 1 -625 -725 A 50 50 0 0 1 -725 -725 Z M -900 -550 L -500 -550 L -500 -900 L -900 -900 Z"/></clipPath><clipPath id="clip-nuFabyZtwmVGB-outside"><path d="M -800 -800 L -600 -800 L -600 -650 L -800 -650 Z"/><path d="M -800 -783.6884711332041 L -788.4270130896263 -800 L -700.0000000000001 -737.261266349295 L -611.5729869103741 -800 L -600.0000000000002 -783.6884711332041 L -682.7183767208168 -725 L -600.0000000000002 -666.3115288667959 L -611.5729869103741 -650 L -700.0000000000001 -712.738733650705 L -788.4270130896263 -650 L -800 -666.3115288667959 L -717.2816232791835 -725 Z"/></clipPath><g><rect width="48" height="16.8" transform="matrix(1 0 0 1 -800 -825)" fill="none" stroke="none"/><g alignment-baseline="alphabetic" transform="matrix(1 0 0 1 -800 -825)"><g/><text stroke="none" fill="#000" font-size="14"><tspan y="12.600000000000001"><tspan x="0.265625">Clip out
</tspan></tspan></text><g stroke="#000"/></g></g><g clip-path="url(#clip-nabVKldds8qFw)"><rect width="200" height="150" transform="matrix(1 0 0 1 -575 -800)" fill="#66ffff" stroke="#000000" stroke-linecap="butt" stroke-linejoin="round"/><path transform="matrix(1 0 0 1 -574.9999999999998 -800)" d="M 0 16.311528866795932 L 11.572986910373789 0 L 99.99999999999989 62.73873365070491 L 188.42701308962597 0 L 199.99999999999977 16.311528866795932 L 117.28162327918321 75 L 199.99999999999977 133.68847113320408 L 188.42701308962597 150 L 99.99999999999989 87.26126634929508 L 11.572986910373789 150 L 0 133.68847113320408 L 82.71837672081656 75 Z" fill="#ff6666" stroke="#000000" stroke-linecap="butt" stroke-linejoin="round"/></g><clipPath id="clip-nabVKldds8qFw"><path d="M -550 -725 A 50 50 0 0 1 -450 -725 A 50 50 0 0 1 -550 -725 Z"/><path d="M -500 -725 A 50 50 0 0 1 -400 -725 A 50 50 0 0 1 -500 -725 Z"/></clipPath><clipPath id="clip-nabVKldds8qFw-nR2IGAmZo6AlQ"><path d="M -550 -725 A 50 50 0 0 1 -450 -725 A 50 50 0 0 1 -550 -725 Z M -675 -550 L -275 -550 L -275 -900 L -675 -900 Z"/></clipPath><clipPath id="clip-nabVKldds8qFw-n4yue-kAg6CQT" clip-path="url(#clip-nabVKldds8qFw-nR2IGAmZo6AlQ)"><path d="M -500 -725 A 50 50 0 0 1 -400 -725 A 50 50 0 0 1 -500 -725 Z M -675 -550 L -275 -550 L -275 -900 L -675 -900 Z"/></clipPath><g clip-path="url(#clip-nabVKldds8qFw-n4yue-kAg6CQT)"><path d="M -550 -725 A 50 50 0 0 1 -450 -725 A 50 50 0 0 1 -550 -725 Z" fill="none" stroke="#000000" stroke-linecap="butt" stroke-linejoin="round"/><path d="M -500 -725 A 50 50 0 0 1 -400 -725 A 50 50 0 0 1 -500 -725 Z" fill="none" stroke="#000000" stroke-linecap="butt" stroke-linejoin="round"/></g><clipPath id="clip-nabVKldds8qFw-outside"><path d="M -575 -800 L -375 -800 L -375 -650 L -575 -650 Z"/><path d="M -574.9999999999998 -783.6884711332041 L -563.427013089626 -800 L -474.9999999999999 -737.261266349295 L -386.5729869103738 -800 L -375 -783.6884711332041 L -457.71837672081654 -725 L -375 -666.3115288667959 L -386.5729869103738 -650 L -474.9999999999999 -712.738733650705 L -563.427013089626 -650 L -574.9999999999998 -666.3115288667959 L -492.28162327918324 -725 Z"/></clipPath><g><rect width="39" height="16.8" transform="matrix(1 0 0 1 -575 -825)" fill="none" stroke="none"/><g alignment-baseline="alphabetic" transform="matrix(1 0 0 1 -575 -825)"><g/><text stroke="none" fill="#000" font-size="14"><tspan y="12.600000000000001"><tspan x="0.04833984375">Clip in
</tspan></tspan></text><g stroke="#000"/></g></g><def data-folly-template="{&quot;shapes&quot;:[{&quot;id&quot;:&quot;n65vC5d0cyuuN&quot;,&quot;findex&quot;:&quot;bBF1OA&quot;,&quot;type&quot;:&quot;group&quot;,&quot;p&quot;:{&quot;x&quot;:0,&quot;y&quot;:0},&quot;rotation&quot;:0},{&quot;id&quot;:&quot;nbKKaWWBfr9DZ&quot;,&quot;findex&quot;:&quot;bBB4Yq&quot;,&quot;type&quot;:&quot;rectangle&quot;,&quot;p&quot;:{&quot;x&quot;:-800,&quot;y&quot;:-1000},&quot;rotation&quot;:0,&quot;parentId&quot;:&quot;n65vC5d0cyuuN&quot;,&quot;fill&quot;:{&quot;color&quot;:{&quot;r&quot;:102,&quot;g&quot;:255,&quot;b&quot;:255,&quot;a&quot;:1}},&quot;stroke&quot;:{&quot;color&quot;:{&quot;r&quot;:0,&quot;g&quot;:0,&quot;b&quot;:0,&quot;a&quot;:1}},&quot;width&quot;:200,&quot;height&quot;:150,&quot;textPadding&quot;:{&quot;value&quot;:[2,2,2,2]}},{&quot;id&quot;:&quot;nJsIgjKECPIvG&quot;,&quot;findex&quot;:&quot;bBBcRG&quot;,&quot;type&quot;:&quot;diagonal_cross&quot;,&quot;p&quot;:{&quot;x&quot;:-800,&quot;y&quot;:-1000},&quot;rotation&quot;:0,&quot;parentId&quot;:&quot;n65vC5d0cyuuN&quot;,&quot;fill&quot;:{&quot;color&quot;:{&quot;r&quot;:255,&quot;g&quot;:102,&quot;b&quot;:102,&quot;a&quot;:1}},&quot;stroke&quot;:{&quot;color&quot;:{&quot;r&quot;:0,&quot;g&quot;:0,&quot;b&quot;:0,&quot;a&quot;:1}},&quot;width&quot;:199.99999999999977,&quot;height&quot;:150,&quot;crossSize&quot;:20},{&quot;id&quot;:&quot;nii2YJf4XeTpZ&quot;,&quot;findex&quot;:&quot;bBCAJh&quot;,&quot;type&quot;:&quot;ellipse&quot;,&quot;p&quot;:{&quot;x&quot;:-775,&quot;y&quot;:-975},&quot;rotation&quot;:0,&quot;parentId&quot;:&quot;n65vC5d0cyuuN&quot;,&quot;fill&quot;:{&quot;color&quot;:{&quot;r&quot;:255,&quot;g&quot;:255,&quot;b&quot;:102,&quot;a&quot;:1}},&quot;stroke&quot;:{&quot;color&quot;:{&quot;r&quot;:0,&quot;g&quot;:0,&quot;b&quot;:0,&quot;a&quot;:1}},&quot;rx&quot;:50,&quot;ry&quot;:50},{&quot;id&quot;:&quot;nnP-vGFnDu0sd&quot;,&quot;findex&quot;:&quot;bBE7gQ&quot;,&quot;type&quot;:&quot;ellipse&quot;,&quot;p&quot;:{&quot;x&quot;:-725,&quot;y&quot;:-975},&quot;rotation&quot;:0,&quot;parentId&quot;:&quot;n65vC5d0cyuuN&quot;,&quot;fill&quot;:{&quot;color&quot;:{&quot;r&quot;:102,&quot;g&quot;:255,&quot;b&quot;:102,&quot;a&quot;:1}},&quot;stroke&quot;:{&quot;color&quot;:{&quot;r&quot;:0,&quot;g&quot;:0,&quot;b&quot;:0,&quot;a&quot;:1}},&quot;rx&quot;:50,&quot;ry&quot;:50},{&quot;id&quot;:&quot;nuFabyZtwmVGB&quot;,&quot;findex&quot;:&quot;bBH5DC&quot;,&quot;type&quot;:&quot;group&quot;,&quot;p&quot;:{&quot;x&quot;:0,&quot;y&quot;:0},&quot;rotation&quot;:0},{&quot;id&quot;:&quot;nNQOz5DXqtHqI&quot;,&quot;findex&quot;:&quot;bBI0BT&quot;,&quot;type&quot;:&quot;rectangle&quot;,&quot;p&quot;:{&quot;x&quot;:-800,&quot;y&quot;:-800},&quot;rotation&quot;:0,&quot;parentId&quot;:&quot;nuFabyZtwmVGB&quot;,&quot;fill&quot;:{&quot;color&quot;:{&quot;r&quot;:102,&quot;g&quot;:255,&quot;b&quot;:255,&quot;a&quot;:1}},&quot;stroke&quot;:{&quot;color&quot;:{&quot;r&quot;:0,&quot;g&quot;:0,&quot;b&quot;:0,&quot;a&quot;:1}},&quot;width&quot;:200,&quot;height&quot;:150,&quot;textPadding&quot;:{&quot;value&quot;:[2,2,2,2]}},{&quot;id&quot;:&quot;nYst3OEcvaRJH&quot;,&quot;findex&quot;:&quot;bBIahH&quot;,&quot;type&quot;:&quot;diagonal_cross&quot;,&quot;p&quot;:{&quot;x&quot;:-800,&quot;y&quot;:-800},&quot;rotation&quot;:0,&quot;parentId&quot;:&quot;nuFabyZtwmVGB&quot;,&quot;fill&quot;:{&quot;color&quot;:{&quot;r&quot;:255,&quot;g&quot;:102,&quot;b&quot;:102,&quot;a&quot;:1}},&quot;stroke&quot;:{&quot;color&quot;:{&quot;r&quot;:0,&quot;g&quot;:0,&quot;b&quot;:0,&quot;a&quot;:1}},&quot;width&quot;:199.99999999999977,&quot;height&quot;:150,&quot;crossSize&quot;:20},{&quot;id&quot;:&quot;nqh53HqXgRJiX&quot;,&quot;findex&quot;:&quot;bBJBD5&quot;,&quot;type&quot;:&quot;ellipse&quot;,&quot;p&quot;:{&quot;x&quot;:-775,&quot;y&quot;:-775},&quot;rotation&quot;:0,&quot;parentId&quot;:&quot;nuFabyZtwmVGB&quot;,&quot;clipping&quot;:true,&quot;fill&quot;:{&quot;color&quot;:{&quot;r&quot;:255,&quot;g&quot;:255,&quot;b&quot;:102,&quot;a&quot;:1}},&quot;stroke&quot;:{&quot;color&quot;:{&quot;r&quot;:0,&quot;g&quot;:0,&quot;b&quot;:0,&quot;a&quot;:1}},&quot;rx&quot;:50,&quot;ry&quot;:50},{&quot;id&quot;:&quot;nTLClsGTmICRV&quot;,&quot;findex&quot;:&quot;bBK34W&quot;,&quot;type&quot;:&quot;ellipse&quot;,&quot;p&quot;:{&quot;x&quot;:-725,&quot;y&quot;:-775},&quot;rotation&quot;:0,&quot;parentId&quot;:&quot;nuFabyZtwmVGB&quot;,&quot;clipping&quot;:true,&quot;fill&quot;:{&quot;color&quot;:{&quot;r&quot;:102,&quot;g&quot;:255,&quot;b&quot;:102,&quot;a&quot;:1}},&quot;stroke&quot;:{&quot;color&quot;:{&quot;r&quot;:0,&quot;g&quot;:0,&quot;b&quot;:0,&quot;a&quot;:1}},&quot;rx&quot;:50,&quot;ry&quot;:50},{&quot;id&quot;:&quot;n1dM4zTsxygbb&quot;,&quot;findex&quot;:&quot;bBL1BJ&quot;,&quot;type&quot;:&quot;text&quot;,&quot;p&quot;:{&quot;x&quot;:-800,&quot;y&quot;:-825},&quot;rotation&quot;:0,&quot;fill&quot;:{&quot;color&quot;:{&quot;r&quot;:255,&quot;g&quot;:255,&quot;b&quot;:255,&quot;a&quot;:1},&quot;disabled&quot;:true},&quot;stroke&quot;:{&quot;color&quot;:{&quot;r&quot;:0,&quot;g&quot;:0,&quot;b&quot;:0,&quot;a&quot;:1},&quot;disabled&quot;:true},&quot;width&quot;:48,&quot;height&quot;:16.8,&quot;maxWidth&quot;:600},{&quot;id&quot;:&quot;nabVKldds8qFw&quot;,&quot;findex&quot;:&quot;bBN1Dc&quot;,&quot;type&quot;:&quot;group&quot;,&quot;p&quot;:{&quot;x&quot;:0,&quot;y&quot;:0},&quot;rotation&quot;:0,&quot;clipRule&quot;:&quot;in&quot;},{&quot;id&quot;:&quot;nLowJEZ69KVbO&quot;,&quot;findex&quot;:&quot;bBO2M0&quot;,&quot;type&quot;:&quot;rectangle&quot;,&quot;p&quot;:{&quot;x&quot;:-575,&quot;y&quot;:-800},&quot;rotation&quot;:0,&quot;parentId&quot;:&quot;nabVKldds8qFw&quot;,&quot;fill&quot;:{&quot;color&quot;:{&quot;r&quot;:102,&quot;g&quot;:255,&quot;b&quot;:255,&quot;a&quot;:1}},&quot;stroke&quot;:{&quot;color&quot;:{&quot;r&quot;:0,&quot;g&quot;:0,&quot;b&quot;:0,&quot;a&quot;:1}},&quot;width&quot;:200,&quot;height&quot;:150,&quot;textPadding&quot;:{&quot;value&quot;:[2,2,2,2]}},{&quot;id&quot;:&quot;nj6VvQghbp5J6&quot;,&quot;findex&quot;:&quot;bBOWVK&quot;,&quot;type&quot;:&quot;diagonal_cross&quot;,&quot;p&quot;:{&quot;x&quot;:-574.9999999999998,&quot;y&quot;:-800},&quot;rotation&quot;:0,&quot;parentId&quot;:&quot;nabVKldds8qFw&quot;,&quot;fill&quot;:{&quot;color&quot;:{&quot;r&quot;:255,&quot;g&quot;:102,&quot;b&quot;:102,&quot;a&quot;:1}},&quot;stroke&quot;:{&quot;color&quot;:{&quot;r&quot;:0,&quot;g&quot;:0,&quot;b&quot;:0,&quot;a&quot;:1}},&quot;width&quot;:199.99999999999977,&quot;height&quot;:150,&quot;crossSize&quot;:20},{&quot;id&quot;:&quot;nR2IGAmZo6AlQ&quot;,&quot;findex&quot;:&quot;bBP0ef&quot;,&quot;type&quot;:&quot;ellipse&quot;,&quot;p&quot;:{&quot;x&quot;:-550,&quot;y&quot;:-775},&quot;rotation&quot;:0,&quot;parentId&quot;:&quot;nabVKldds8qFw&quot;,&quot;clipping&quot;:true,&quot;fill&quot;:{&quot;color&quot;:{&quot;r&quot;:255,&quot;g&quot;:255,&quot;b&quot;:102,&quot;a&quot;:1}},&quot;stroke&quot;:{&quot;color&quot;:{&quot;r&quot;:0,&quot;g&quot;:0,&quot;b&quot;:0,&quot;a&quot;:1}},&quot;rx&quot;:50,&quot;ry&quot;:50},{&quot;id&quot;:&quot;n4yue-kAg6CQT&quot;,&quot;findex&quot;:&quot;bBQ9ua&quot;,&quot;type&quot;:&quot;ellipse&quot;,&quot;p&quot;:{&quot;x&quot;:-500,&quot;y&quot;:-775},&quot;rotation&quot;:0,&quot;parentId&quot;:&quot;nabVKldds8qFw&quot;,&quot;clipping&quot;:true,&quot;fill&quot;:{&quot;color&quot;:{&quot;r&quot;:102,&quot;g&quot;:255,&quot;b&quot;:102,&quot;a&quot;:1}},&quot;stroke&quot;:{&quot;color&quot;:{&quot;r&quot;:0,&quot;g&quot;:0,&quot;b&quot;:0,&quot;a&quot;:1}},&quot;rx&quot;:50,&quot;ry&quot;:50},{&quot;id&quot;:&quot;n7NyXc4CaEoj4&quot;,&quot;findex&quot;:&quot;bBR4Du&quot;,&quot;type&quot;:&quot;text&quot;,&quot;p&quot;:{&quot;x&quot;:-575,&quot;y&quot;:-825},&quot;rotation&quot;:0,&quot;fill&quot;:{&quot;color&quot;:{&quot;r&quot;:255,&quot;g&quot;:255,&quot;b&quot;:255,&quot;a&quot;:1},&quot;disabled&quot;:true},&quot;stroke&quot;:{&quot;color&quot;:{&quot;r&quot;:0,&quot;g&quot;:0,&quot;b&quot;:0,&quot;a&quot;:1},&quot;disabled&quot;:true},&quot;width&quot;:39,&quot;height&quot;:16.8,&quot;maxWidth&quot;:600}],&quot;docs&quot;:[[&quot;nbKKaWWBfr9DZ&quot;,[{&quot;insert&quot;:&quot;\n&quot;,&quot;attributes&quot;:{&quot;direction&quot;:&quot;middle&quot;,&quot;align&quot;:&quot;center&quot;}}]],[&quot;nii2YJf4XeTpZ&quot;,[{&quot;insert&quot;:&quot;\n&quot;,&quot;attributes&quot;:{&quot;direction&quot;:&quot;middle&quot;,&quot;align&quot;:&quot;center&quot;}}]],[&quot;nnP-vGFnDu0sd&quot;,[{&quot;insert&quot;:&quot;\n&quot;,&quot;attributes&quot;:{&quot;direction&quot;:&quot;middle&quot;,&quot;align&quot;:&quot;center&quot;}}]],[&quot;nNQOz5DXqtHqI&quot;,[{&quot;insert&quot;:&quot;\n&quot;,&quot;attributes&quot;:{&quot;direction&quot;:&quot;middle&quot;,&quot;align&quot;:&quot;center&quot;}}]],[&quot;nqh53HqXgRJiX&quot;,[{&quot;insert&quot;:&quot;\n&quot;,&quot;attributes&quot;:{&quot;direction&quot;:&quot;middle&quot;,&quot;align&quot;:&quot;center&quot;}}]],[&quot;nTLClsGTmICRV&quot;,[{&quot;insert&quot;:&quot;\n&quot;,&quot;attributes&quot;:{&quot;direction&quot;:&quot;middle&quot;,&quot;align&quot;:&quot;center&quot;}}]],[&quot;n1dM4zTsxygbb&quot;,[{&quot;insert&quot;:&quot;Clip out\n&quot;,&quot;attributes&quot;:{&quot;direction&quot;:&quot;middle&quot;,&quot;align&quot;:&quot;center&quot;}}]],[&quot;nLowJEZ69KVbO&quot;,[{&quot;insert&quot;:&quot;\n&quot;,&quot;attributes&quot;:{&quot;direction&quot;:&quot;middle&quot;,&quot;align&quot;:&quot;center&quot;}}]],[&quot;nR2IGAmZo6AlQ&quot;,[{&quot;insert&quot;:&quot;\n&quot;,&quot;attributes&quot;:{&quot;direction&quot;:&quot;middle&quot;,&quot;align&quot;:&quot;center&quot;}}]],[&quot;n4yue-kAg6CQT&quot;,[{&quot;insert&quot;:&quot;\n&quot;,&quot;attributes&quot;:{&quot;direction&quot;:&quot;middle&quot;,&quot;align&quot;:&quot;center&quot;}}]],[&quot;n7NyXc4CaEoj4&quot;,[{&quot;insert&quot;:&quot;Clip in\n&quot;,&quot;attributes&quot;:{&quot;direction&quot;:&quot;middle&quot;,&quot;align&quot;:&quot;center&quot;}}]]]}"/></svg>